<svg xmlns="http://www.w3.org/2000/svg" viewBox="0 0 1200 300" width="1200" height="300">
  <defs>
    <linearGradient id="bgGrad" x1="0%" y1="0%" x2="100%" y2="100%">
      <stop offset="0%" style="stop-color:#1a1a2e"/>
      <stop offset="100%" style="stop-color:#16213e"/>
    </linearGradient>
    <linearGradient id="goldGrad" x1="0%" y1="0%" x2="0%" y2="100%">
      <stop offset="0%" style="stop-color:#f5d442"/>
      <stop offset="50%" style="stop-color:#e8a825"/>
      <stop offset="100%" style="stop-color:#d4782a"/>
    </linearGradient>
    <linearGradient id="greenGrad" x1="0%" y1="0%" x2="100%" y2="0%">
      <stop offset="0%" style="stop-color:#006847"/>
      <stop offset="100%" style="stop-color:#00a86b"/>
    </linearGradient>
    <linearGradient id="redGrad" x1="0%" y1="0%" x2="100%" y2="0%">
      <stop offset="0%" style="stop-color:#ce1126"/>
      <stop offset="100%" style="stop-color:#e8373e"/>
    </linearGradient>
    <filter id="glow">
      <feGaussianBlur stdDeviation="3" result="blur"/>
      <feComposite in="SourceGraphic" in2="blur" operator="over"/>
    </filter>
    <filter id="pixelShadow">
      <feDropShadow dx="3" dy="3" stdDeviation="0" flood-color="#000" flood-opacity="0.5"/>
    </filter>
    <!-- Grid pattern for subtle background texture -->
    <pattern id="grid" width="20" height="20" patternUnits="userSpaceOnUse">
      <rect width="20" height="20" fill="none"/>
      <rect width="1" height="1" x="0" y="0" fill="#ffffff" opacity="0.03"/>
    </pattern>
  </defs>

  <!-- Background -->
  <rect width="1200" height="300" fill="url(#bgGrad)"/>
  <rect width="1200" height="300" fill="url(#grid)"/>

  <!-- Subtle scan lines -->
  <g opacity="0.05">
    <line x1="0" y1="0" x2="1200" y2="0" stroke="#fff" stroke-width="1"/>
    <line x1="0" y1="4" x2="1200" y2="4" stroke="#fff" stroke-width="1"/>
    <line x1="0" y1="8" x2="1200" y2="8" stroke="#fff" stroke-width="1"/>
    <line x1="0" y1="12" x2="1200" y2="12" stroke="#fff" stroke-width="1"/>
    <line x1="0" y1="16" x2="1200" y2="16" stroke="#fff" stroke-width="1"/>
    <line x1="0" y1="20" x2="1200" y2="20" stroke="#fff" stroke-width="1"/>
    <line x1="0" y1="24" x2="1200" y2="24" stroke="#fff" stroke-width="1"/>
    <line x1="0" y1="28" x2="1200" y2="28" stroke="#fff" stroke-width="1"/>
    <line x1="0" y1="32" x2="1200" y2="32" stroke="#fff" stroke-width="1"/>
    <line x1="0" y1="36" x2="1200" y2="36" stroke="#fff" stroke-width="1"/>
    <line x1="0" y1="40" x2="1200" y2="40" stroke="#fff" stroke-width="1"/>
    <line x1="0" y1="44" x2="1200" y2="44" stroke="#fff" stroke-width="1"/>
    <line x1="0" y1="48" x2="1200" y2="48" stroke="#fff" stroke-width="1"/>
    <line x1="0" y1="52" x2="1200" y2="52" stroke="#fff" stroke-width="1"/>
    <line x1="0" y1="56" x2="1200" y2="56" stroke="#fff" stroke-width="1"/>
    <line x1="0" y1="60" x2="1200" y2="60" stroke="#fff" stroke-width="1"/>
    <line x1="0" y1="64" x2="1200" y2="64" stroke="#fff" stroke-width="1"/>
    <line x1="0" y1="68" x2="1200" y2="68" stroke="#fff" stroke-width="1"/>
    <line x1="0" y1="72" x2="1200" y2="72" stroke="#fff" stroke-width="1"/>
    <line x1="0" y1="76" x2="1200" y2="76" stroke="#fff" stroke-width="1"/>
    <line x1="0" y1="80" x2="1200" y2="80" stroke="#fff" stroke-width="1"/>
    <line x1="0" y1="84" x2="1200" y2="84" stroke="#fff" stroke-width="1"/>
    <line x1="0" y1="88" x2="1200" y2="88" stroke="#fff" stroke-width="1"/>
    <line x1="0" y1="92" x2="1200" y2="92" stroke="#fff" stroke-width="1"/>
    <line x1="0" y1="96" x2="1200" y2="96" stroke="#fff" stroke-width="1"/>
    <line x1="0" y1="100" x2="1200" y2="100" stroke="#fff" stroke-width="1"/>
    <line x1="0" y1="104" x2="1200" y2="104" stroke="#fff" stroke-width="1"/>
    <line x1="0" y1="108" x2="1200" y2="108" stroke="#fff" stroke-width="1"/>
    <line x1="0" y1="112" x2="1200" y2="112" stroke="#fff" stroke-width="1"/>
    <line x1="0" y1="116" x2="1200" y2="116" stroke="#fff" stroke-width="1"/>
    <line x1="0" y1="120" x2="1200" y2="120" stroke="#fff" stroke-width="1"/>
    <line x1="0" y1="124" x2="1200" y2="124" stroke="#fff" stroke-width="1"/>
    <line x1="0" y1="128" x2="1200" y2="128" stroke="#fff" stroke-width="1"/>
    <line x1="0" y1="132" x2="1200" y2="132" stroke="#fff" stroke-width="1"/>
    <line x1="0" y1="136" x2="1200" y2="136" stroke="#fff" stroke-width="1"/>
    <line x1="0" y1="140" x2="1200" y2="140" stroke="#fff" stroke-width="1"/>
    <line x1="0" y1="144" x2="1200" y2="144" stroke="#fff" stroke-width="1"/>
    <line x1="0" y1="148" x2="1200" y2="148" stroke="#fff" stroke-width="1"/>
    <line x1="0" y1="152" x2="1200" y2="152" stroke="#fff" stroke-width="1"/>
    <line x1="0" y1="156" x2="1200" y2="156" stroke="#fff" stroke-width="1"/>
    <line x1="0" y1="160" x2="1200" y2="160" stroke="#fff" stroke-width="1"/>
    <line x1="0" y1="164" x2="1200" y2="164" stroke="#fff" stroke-width="1"/>
    <line x1="0" y1="168" x2="1200" y2="168" stroke="#fff" stroke-width="1"/>
    <line x1="0" y1="172" x2="1200" y2="172" stroke="#fff" stroke-width="1"/>
    <line x1="0" y1="176" x2="1200" y2="176" stroke="#fff" stroke-width="1"/>
    <line x1="0" y1="180" x2="1200" y2="180" stroke="#fff" stroke-width="1"/>
    <line x1="0" y1="184" x2="1200" y2="184" stroke="#fff" stroke-width="1"/>
    <line x1="0" y1="188" x2="1200" y2="188" stroke="#fff" stroke-width="1"/>
    <line x1="0" y1="192" x2="1200" y2="192" stroke="#fff" stroke-width="1"/>
    <line x1="0" y1="196" x2="1200" y2="196" stroke="#fff" stroke-width="1"/>
    <line x1="0" y1="200" x2="1200" y2="200" stroke="#fff" stroke-width="1"/>
    <line x1="0" y1="204" x2="1200" y2="204" stroke="#fff" stroke-width="1"/>
    <line x1="0" y1="208" x2="1200" y2="208" stroke="#fff" stroke-width="1"/>
    <line x1="0" y1="212" x2="1200" y2="212" stroke="#fff" stroke-width="1"/>
    <line x1="0" y1="216" x2="1200" y2="216" stroke="#fff" stroke-width="1"/>
    <line x1="0" y1="220" x2="1200" y2="220" stroke="#fff" stroke-width="1"/>
    <line x1="0" y1="224" x2="1200" y2="224" stroke="#fff" stroke-width="1"/>
    <line x1="0" y1="228" x2="1200" y2="228" stroke="#fff" stroke-width="1"/>
    <line x1="0" y1="232" x2="1200" y2="232" stroke="#fff" stroke-width="1"/>
    <line x1="0" y1="236" x2="1200" y2="236" stroke="#fff" stroke-width="1"/>
    <line x1="0" y1="240" x2="1200" y2="240" stroke="#fff" stroke-width="1"/>
    <line x1="0" y1="244" x2="1200" y2="244" stroke="#fff" stroke-width="1"/>
    <line x1="0" y1="248" x2="1200" y2="248" stroke="#fff" stroke-width="1"/>
    <line x1="0" y1="252" x2="1200" y2="252" stroke="#fff" stroke-width="1"/>
    <line x1="0" y1="256" x2="1200" y2="256" stroke="#fff" stroke-width="1"/>
    <line x1="0" y1="260" x2="1200" y2="260" stroke="#fff" stroke-width="1"/>
    <line x1="0" y1="264" x2="1200" y2="264" stroke="#fff" stroke-width="1"/>
    <line x1="0" y1="268" x2="1200" y2="268" stroke="#fff" stroke-width="1"/>
    <line x1="0" y1="272" x2="1200" y2="272" stroke="#fff" stroke-width="1"/>
    <line x1="0" y1="276" x2="1200" y2="276" stroke="#fff" stroke-width="1"/>
    <line x1="0" y1="280" x2="1200" y2="280" stroke="#fff" stroke-width="1"/>
    <line x1="0" y1="284" x2="1200" y2="284" stroke="#fff" stroke-width="1"/>
    <line x1="0" y1="288" x2="1200" y2="288" stroke="#fff" stroke-width="1"/>
    <line x1="0" y1="292" x2="1200" y2="292" stroke="#fff" stroke-width="1"/>
    <line x1="0" y1="296" x2="1200" y2="296" stroke="#fff" stroke-width="1"/>
  </g>

  <!-- Mexican flag accent bar at top -->
  <rect x="0" y="0" width="400" height="4" fill="url(#greenGrad)"/>
  <rect x="400" y="0" width="400" height="4" fill="#ffffff" opacity="0.9"/>
  <rect x="800" y="0" width="400" height="4" fill="url(#redGrad)"/>

  <!-- Decorative pixel blocks - left side -->
  <g opacity="0.15">
    <rect x="30" y="40" width="12" height="12" fill="#f5d442"/>
    <rect x="30" y="56" width="12" height="12" fill="#e8a825"/>
    <rect x="46" y="40" width="12" height="12" fill="#e8a825"/>
    <rect x="14" y="56" width="12" height="12" fill="#f5d442"/>

    <rect x="30" y="230" width="12" height="12" fill="#d4782a"/>
    <rect x="46" y="246" width="12" height="12" fill="#e8a825"/>
    <rect x="14" y="230" width="12" height="12" fill="#f5d442"/>
    <rect x="30" y="246" width="12" height="12" fill="#e8a825"/>
  </g>

  <!-- Decorative pixel blocks - right side -->
  <g opacity="0.15">
    <rect x="1150" y="40" width="12" height="12" fill="#f5d442"/>
    <rect x="1150" y="56" width="12" height="12" fill="#e8a825"/>
    <rect x="1166" y="56" width="12" height="12" fill="#d4782a"/>
    <rect x="1134" y="40" width="12" height="12" fill="#e8a825"/>

    <rect x="1150" y="230" width="12" height="12" fill="#d4782a"/>
    <rect x="1134" y="246" width="12" height="12" fill="#f5d442"/>
    <rect x="1166" y="230" width="12" height="12" fill="#e8a825"/>
    <rect x="1150" y="246" width="12" height="12" fill="#e8a825"/>
  </g>

  <!-- Main title - pixel style blocky text -->
  <g filter="url(#pixelShadow)">
    <!-- "CNBV" -->
    <text x="600" y="130" text-anchor="middle" font-family="'Courier New', 'Consolas', monospace" font-size="88" font-weight="900" fill="url(#goldGrad)" letter-spacing="8">
      CNBV-SCRAPER
    </text>
  </g>

  <!-- Pixel outline effect on title -->
  <text x="600" y="130" text-anchor="middle" font-family="'Courier New', 'Consolas', monospace" font-size="88" font-weight="900" fill="none" stroke="#f5d442" stroke-width="1" opacity="0.4" letter-spacing="8">
    CNBV-SCRAPER
  </text>

  <!-- Subtitle -->
  <text x="600" y="170" text-anchor="middle" font-family="'Courier New', 'Consolas', monospace" font-size="20" fill="#8a8aaa" letter-spacing="12">
    MEXICAN FINANCIAL FILINGS
  </text>

  <!-- Bottom tagline with pixel accents -->
  <g>
    <text x="600" y="210" text-anchor="middle" font-family="'Courier New', 'Consolas', monospace" font-size="14" fill="#6a6a8a" letter-spacing="4">
      RAW HTTP // NO HEADLESS BROWSERS // ASPX REVERSE-ENGINEERED
    </text>
  </g>

  <!-- Bottom tech badges -->
  <g transform="translate(600, 252)" text-anchor="middle">
    <!-- Python badge -->
    <rect x="-200" y="-14" width="80" height="22" rx="3" fill="#306998" opacity="0.8"/>
    <text x="-160" y="2" font-family="'Courier New', monospace" font-size="11" fill="#ffd43b" text-anchor="middle" font-weight="bold">PYTHON</text>

    <!-- requests badge -->
    <rect x="-100" y="-14" width="90" height="22" rx="3" fill="#2a2a4a" opacity="0.8" stroke="#e8a825" stroke-width="1" stroke-opacity="0.3"/>
    <text x="-55" y="2" font-family="'Courier New', monospace" font-size="11" fill="#e8a825" text-anchor="middle">REQUESTS</text>

    <!-- BS4 badge -->
    <rect x="10" y="-14" width="50" height="22" rx="3" fill="#2a2a4a" opacity="0.8" stroke="#e8a825" stroke-width="1" stroke-opacity="0.3"/>
    <text x="35" y="2" font-family="'Courier New', monospace" font-size="11" fill="#e8a825" text-anchor="middle">BS4</text>

    <!-- DevExpress badge -->
    <rect x="80" y="-14" width="110" height="22" rx="3" fill="#2a2a4a" opacity="0.8" stroke="#d4782a" stroke-width="1" stroke-opacity="0.3"/>
    <text x="135" y="2" font-family="'Courier New', monospace" font-size="11" fill="#d4782a" text-anchor="middle">DEVEXPRESS</text>
  </g>

  <!-- Mexican flag accent bar at bottom -->
  <rect x="0" y="296" width="400" height="4" fill="url(#greenGrad)"/>
  <rect x="400" y="296" width="400" height="4" fill="#ffffff" opacity="0.9"/>
  <rect x="800" y="296" width="400" height="4" fill="url(#redGrad)"/>
</svg>
